PathFileType	4	(X/Y/Z)	D:\TRACE\v60_Jaco2_6-2-23\v60_baseline_1-platform.trc
DataRate	CameraRate	NumFrames	NumMarkers	Units	OrigDataRate	OrigDataStartFrame	OrigNumFrames
100.00	100.00	      37	5	mm	100.00	1	      6251
Frame#	Time	Left_Front			Right_Front			Left_Aft			Right_Aft			Post			
		X1	Y1	Z1	X2	Y2	Z2	X3	Y3	Z3	X4	Y4	Z4	X5	Y5	Z5	

1	0.000	-800.60962	8.90398	-638.79010	769.39124	10.13732	-644.41974	-708.80219	7.99284	495.94568	733.31732	6.88327	505.60522	-14.19495	1308.22437	-961.81750	
2	0.010	-800.61707	8.83747	-638.72742	769.38110	10.15029	-644.42267	-708.77887	8.02076	495.99298	733.29333	6.86167	505.59494	-14.20620	1308.20117	-961.77667	
3	0.020	-800.63458	8.81482	-638.74933	769.39972	10.15093	-644.36475	-708.80945	7.98561	495.98486	733.28412	6.87277	505.58862	-14.25774	1308.20398	-961.79712	
4	0.030	-800.63770	8.91944	-638.72412	769.35815	10.15488	-644.40436	-708.79028	8.01546	495.96661	733.26190	6.86815	505.60599	-14.16193	1308.17908	-961.75793	
5	0.040	-800.58502	8.85405	-638.79358	769.41211	10.15120	-644.37335	-708.82361	8.05457	495.97165	733.28271	6.87634	505.60455	-14.14346	1308.19275	-961.79230	
6	0.050	-800.57556	8.85483	-638.81311	769.39886	10.14606	-644.45239	-708.81116	8.07516	495.96381	733.31842	6.88945	505.61658	-14.16749	1308.20789	-961.81055	
7	0.060	-800.55676	8.87804	-638.82251	769.38715	10.18684	-644.35693	-708.82129	8.06196	495.98416	733.29883	6.86110	505.60059	-14.11806	1308.18945	-961.79822	
8	0.070	-800.63556	8.85868	-638.74658	769.41907	10.13511	-644.41168	-708.76849	7.99730	495.99222	733.31488	6.87463	505.60919	-14.24764	1308.20862	-961.82483	
9	0.080	-800.61981	8.85634	-638.78699	769.37195	10.12440	-644.41193	-708.77435	8.02775	496.01190	733.34271	6.88499	505.60400	-14.16243	1308.18481	-961.80505	
10	0.090	-800.62683	8.88455	-638.77600	769.42554	10.14634	-644.36542	-708.76025	7.97861	496.02008	733.31628	6.87145	505.57916	-14.16273	1308.19678	-961.80121	
11	0.100	-800.56891	8.92189	-638.79889	769.41504	10.14644	-644.41217	-708.80200	8.00506	495.96725	733.35828	6.87063	505.58414	-14.13164	1308.22595	-961.81738	
12	0.110	-800.56580	8.87969	-638.79114	769.41095	10.16583	-644.42255	-708.78857	8.01776	495.95056	733.32782	6.87958	505.59348	-14.15048	1308.21326	-961.81775	
13	0.120	-800.61670	8.87456	-638.76489	769.35498	10.15539	-644.42413	-708.82629	8.05007	495.95923	733.28131	6.87748	505.60092	-14.14875	1308.17358	-961.77850	
14	0.130	-800.62109	8.85638	-638.78308	769.39124	10.14793	-644.42059	-708.83392	8.00833	495.94534	733.30463	6.90248	505.56894	-14.21273	1308.21252	-961.85217	
15	0.140	-800.56140	8.81161	-638.85583	769.36829	10.18521	-644.40216	-708.77332	7.97979	495.95651	733.31757	6.88470	505.56055	-14.22518	1308.20959	-961.80359	
16	0.150	-800.54816	8.84730	-638.86072	769.40131	10.16452	-644.38458	-708.77539	7.99660	495.96643	733.37286	6.88921	505.58911	-14.20760	1308.24573	-961.76550	
17	0.160	-800.50885	8.87293	-638.89862	769.42560	10.13487	-644.38733	-708.80548	8.00834	496.00815	733.35736	6.89622	505.59799	-14.17073	1308.26282	-961.77985	
18	0.170	-800.58459	8.87479	-638.79419	769.41986	10.17585	-644.40161	-708.76270	7.95300	495.96701	733.32538	6.89996	505.59863	-14.28492	1308.25891	-961.79498	
19	0.180	-800.60950	8.78629	-638.77032	769.38098	10.14834	-644.41296	-708.80615	8.03872	496.00412	733.02216	6.95322	505.71414	-14.30830	1308.25684	-961.81842	
20	0.190	-800.60309	8.81902	-638.75146	769.43958	10.12706	-644.31921	-708.77649	7.96188	496.01270	733.29431	6.87012	505.62527	-14.28722	1308.26038	-961.80243	
21	0.200	-800.61249	8.87380	-638.81183	769.39001	10.14596	-644.40277	-708.80066	8.03715	495.99081	733.31329	6.91483	505.58765	-14.29463	1308.26563	-961.81769	
22	0.210	-800.58301	8.83165	-638.81580	769.42871	10.17764	-644.38892	-708.82318	8.06101	495.95331	733.33948	6.91403	505.56885	-14.16514	1308.28113	-961.76727	
23	0.220	-800.57019	8.94398	-638.79541	769.39832	10.17981	-644.43591	-708.80792	8.05274	495.95236	733.35071	6.90912	505.57452	-14.21388	1308.29626	-961.82672	
24	0.230	-800.61993	8.81941	-638.79797	769.42603	10.19060	-644.39246	-708.82465	8.04254	495.97156	733.39099	6.91659	505.58392	-14.19661	1308.23804	-961.82172	
25	0.240	-800.61554	8.83525	-638.77704	769.42261	10.16314	-644.38574	-708.76398	8.00569	496.00470	733.32715	6.87996	505.60229	-14.28546	1308.23877	-961.82434	
26	0.250	-800.57123	8.85389	-638.85919	769.41528	10.14986	-644.38757	-708.75555	7.96113	495.97556	733.36560	6.88720	505.59845	-14.19112	1308.27014	-961.78290	
27	0.260	-800.59076	8.85907	-638.78369	769.39276	10.18292	-644.40704	-708.80994	8.04830	495.97809	733.31665	6.86912	505.59518	-14.16625	1308.26257	-961.83014	
28	0.270	-800.59656	8.87913	-638.86224	769.39594	10.16183	-644.44324	-708.79797	8.01467	495.97003	733.34271	6.89562	505.57584	-14.23942	1308.26184	-961.82544	
29	0.280	-800.58923	8.88147	-638.79150	769.40479	10.14444	-644.43439	-708.84302	8.03267	495.97464	733.32666	6.87739	505.58615	-14.23609	1308.26526	-961.83765	
30	0.290	-800.64044	8.83864	-638.76782	769.36859	10.14343	-644.37823	-708.81366	8.00779	495.99112	733.27789	6.87209	505.60080	-14.25057	1308.22021	-961.85620	
31	0.300	-800.61920	8.81176	-638.80029	769.35474	10.12556	-644.40027	-708.76746	7.98115	495.98047	733.34229	6.87347	505.59534	-14.12932	1308.21155	-961.84265	
32	0.310	-800.59375	8.87241	-638.82385	769.39557	10.13022	-644.39423	-708.77472	8.00013	496.00266	733.37213	6.88314	505.63693	-14.10942	1308.21069	-961.78955	
33	0.320	-800.56903	8.86354	-638.78766	769.43323	10.16468	-644.39063	-708.76813	7.99339	495.98260	733.36566	6.91204	505.58475	-14.12138	1308.23914	-961.79816	
34	0.330	-800.59943	8.90718	-638.81641	769.36060	10.18908	-644.41180	-708.78357	8.03202	495.98093	733.38116	6.91460	505.59277	-14.15268	1308.23145	-961.78070	
35	0.340	-800.63263	8.90646	-638.73102	769.41351	10.14921	-644.39154	-708.80212	8.01382	495.98453	733.30829	6.85335	505.60016	-14.13024	1308.22864	-961.81146	
36	0.350	-800.66290	8.83040	-638.74579	769.38800	10.16732	-644.36365	-708.81714	8.00800	495.96811	733.28754	6.87818	505.60339	-14.13935	1308.20288	-961.85193	
37	0.360	-800.58020	8.83600	-638.81702	769.37598	10.16528	-644.41803	-708.79431	8.01451	495.98969	733.34363	6.88926	505.60474	-14.08750	1308.21484	-961.90540	
